# xmcd
#
# Track frame offsets:
#	150
#	18415
#	34641
#	52788
#	70497
#	84949
#	101073
#	117205
#	134452
#	148433
#	163139
#	181460
#	198753
#	213207
#	229951
#	249249
#	266452
#	284381
#	299816
#	314063
#	331764
#
# Disc length: 4634 seconds
#
# Revision: 1
# Processed by: cddbd v1.5.2PL0 Copyright (c) Steve Scherf et al.
# Submitted via: audiograbber 1.83.01
#
DISCID=3f121815
DTITLE=Various Artist - Hunky Country Boys
DYEAR=2012
DGENRE=Country
TTITLE0=Gary Allan - Watching Airplanes
TTITLE1=Blake Shelton - She Wouldn't Be Gone
TTITLE2=Tim McGraw - The Cowboy In Me
TTITLE3=McAlister Kemp - I'm Sure Of That
TTITLE4=Adam Brand - Get On Down The Road
TTITLE5=Lee Kernaghan - Cowgirl
TTITLE6=Rascal Flatts - What Hurts The Most
TTITLE7=Corey Colum - Outback Justice
TTITLE8=Joe Nichols - Who Are You When I'm Not Looking
TTITLE9=Dean Brody - People Know You By Your First Name
TTITLE10=Brad Paisley - The World
TTITLE11=Steve Forde - Road Dog
TTITLE12=Peter McWhirter - I Will Stand By You
TTITLE13=Emerson Drive - Your Last
TTITLE14=Brooks and Dunn - It's Getting Better All The Time
TTITLE15=Matt Scullion - Giddy Up
TTITLE16=Luke Dickens - Devil In The Wind
TTITLE17=Luke Austen - Two Miles Down
TTITLE18=Liam Brew - Like I'm Famous
TTITLE19=Morgan Evans - Big Skies
TTITLE20=Jasmine Rae - Hunky Country Boys
EXTD=
EXTT0=
EXTT1=
EXTT2=
EXTT3=
EXTT4=
EXTT5=
EXTT6=
EXTT7=
EXTT8=
EXTT9=
EXTT10=
EXTT11=
EXTT12=
EXTT13=
EXTT14=
EXTT15=
EXTT16=
EXTT17=
EXTT18=
EXTT19=
EXTT20=
PLAYORDER=
